<svg version="1.1" id="Layer_1" xmlns="http://www.w3.org/2000/svg" xmlns:xlink="http://www.w3.org/1999/xlink" x="0px" y="0px"
	 width="100%" viewBox="0 0 500 500" enable-background="new 0 0 500 500" xml:space="preserve">
<path fill="#FFFFFF" opacity="1.000000" stroke="none" 
	d="
M1.000000,194.000000 
	C1.000000,129.349350 1.000000,65.198708 1.000000,1.024032 
	C167.609024,1.024032 334.218048,1.024032 500.913544,1.024032 
	C500.913544,167.567368 500.913544,334.134796 500.913544,500.851135 
	C334.333435,500.851135 167.666733,500.851135 1.000000,500.851135 
	C1.000000,398.781830 1.000000,296.640900 1.000000,194.000000 
M365.795776,80.128860 
	C364.564697,79.348389 363.333649,78.567917 361.750549,77.280563 
	C360.864044,76.783653 359.977509,76.286743 358.736664,75.278946 
	C357.483734,74.577156 356.230804,73.875359 354.375702,72.868080 
	C352.909515,71.987869 351.443359,71.107658 349.359772,69.891785 
	C347.572510,68.941330 345.785217,67.990883 343.530945,66.529129 
	C305.988098,46.789600 266.133179,40.020676 224.178589,45.535522 
	C203.111801,48.304707 182.923615,54.146805 163.293701,64.084396 
	C160.202972,65.801804 157.112244,67.519211 153.369690,69.317123 
	C151.543076,70.460236 149.716461,71.603355 147.246536,72.944740 
	C145.447495,74.175560 143.648453,75.406372 141.202850,76.828232 
	C139.794495,77.864716 138.386139,78.901199 136.321640,80.132980 
	C133.231979,82.524742 130.142303,84.916496 126.455849,87.483490 
	C124.932884,88.909035 123.409920,90.334579 121.228592,91.953362 
	C118.635963,94.569504 116.043335,97.185646 112.831764,99.932846 
	C111.192184,101.578049 109.552612,103.223259 107.330818,105.196564 
	C101.153046,112.764343 94.975266,120.332130 88.252075,128.261261 
	C87.094856,130.120667 85.937637,131.980057 84.233521,134.222412 
	C83.066818,136.286377 81.900124,138.350327 80.223770,140.912842 
	C77.179611,146.616623 74.135452,152.320404 70.603600,158.516678 
	C69.747063,160.680344 68.890526,162.844009 67.622330,165.584137 
	C66.563057,168.326416 65.503777,171.068680 64.096008,174.385635 
	C63.349735,176.830856 62.603458,179.276077 61.365967,182.286819 
	C60.397392,185.788925 59.428814,189.291016 58.152222,193.443771 
	C57.398582,197.282333 56.644939,201.120880 55.439575,205.575089 
	C51.525997,224.923218 51.051090,244.408005 53.003551,264.818695 
	C53.450783,267.536499 53.898018,270.254333 54.220299,273.732086 
	C54.770710,276.161926 55.321117,278.591766 55.831326,281.806335 
	C56.228771,283.536316 56.626217,285.266296 56.942333,287.735138 
	C57.359470,289.147827 57.776608,290.560547 58.112480,292.697632 
	C58.719982,294.475830 59.327484,296.253998 59.933224,298.805573 
	C60.701797,301.191162 61.470367,303.576721 62.209953,306.695648 
	C64.781288,312.806183 67.352615,318.916687 69.995491,325.751556 
	C71.284950,328.248993 72.574417,330.746399 73.947891,333.938873 
	C75.259537,336.306335 76.571190,338.673828 77.981308,341.646667 
	C78.561012,342.463745 79.140709,343.280823 79.883865,344.767792 
	C80.881271,346.278564 81.878670,347.789307 83.022942,349.929230 
	C83.997726,351.327484 84.972511,352.725708 86.068085,354.720428 
	C86.700974,355.500732 87.333862,356.281036 88.106316,357.717865 
	C89.551689,359.562164 90.997070,361.406494 92.748283,363.883514 
	C107.615562,383.324127 125.153297,399.805267 146.794388,412.800140 
	C148.799683,413.901703 150.804977,415.003265 153.198975,416.614655 
	C154.345230,417.144623 155.491501,417.674622 157.076340,418.742371 
	C158.722382,419.479034 160.368408,420.215698 162.440384,421.488647 
	C163.926514,422.118195 165.412643,422.747772 167.322540,423.838104 
	C168.508469,424.252808 169.694397,424.667511 171.306778,425.609070 
	C173.195404,426.334961 175.084030,427.060822 177.543350,428.177551 
	C179.022552,428.708466 180.501740,429.239349 182.622818,430.156128 
	C187.366226,431.550018 192.109634,432.943878 197.390320,434.774170 
	C199.216492,435.266388 201.042664,435.758575 203.391113,436.738831 
	C205.269562,437.075958 207.148026,437.413116 209.713470,437.963104 
	C210.425247,438.057159 211.137039,438.151215 212.396271,438.773254 
	C213.917007,438.873871 215.437744,438.974487 217.565506,439.499481 
	C220.063339,439.800751 222.561188,440.101990 225.851562,440.728912 
	C229.906357,441.079224 233.961166,441.429504 238.936340,441.956879 
	C247.952713,441.867065 256.969086,441.777252 266.831024,441.828979 
	C270.218536,441.376068 273.606049,440.923157 277.766449,440.593475 
	C280.841858,440.020416 283.917297,439.447327 287.812378,438.928284 
	C293.535706,437.519043 299.259003,436.109802 305.726624,434.709991 
	C313.501099,431.848022 321.275574,428.986023 329.796844,426.101288 
	C332.673309,424.810333 335.596466,423.613464 338.418640,422.213104 
	C356.848206,413.068451 373.856171,401.886932 388.894257,386.873962 
	C389.972778,385.714386 391.051331,384.554779 392.734833,383.053345 
	C398.230713,376.399261 403.726624,369.745178 409.797333,362.766022 
	C419.268799,351.764496 426.132172,339.192474 432.447266,325.503021 
	C433.423035,323.034546 434.398804,320.566071 435.804840,317.705994 
	C436.509338,315.140656 437.213837,312.575348 438.245483,309.358185 
	C439.007660,307.618805 439.769806,305.879425 440.876068,303.532349 
	C442.545746,297.018311 444.215424,290.504303 446.188965,283.258331 
	C446.508881,280.846375 446.828827,278.434448 447.186279,275.257843 
	C447.645721,272.829651 448.105133,270.401428 448.804443,267.177124 
	C448.971375,264.779999 449.138275,262.382874 449.667114,259.160828 
	C449.752869,256.772369 449.838623,254.383896 450.104858,251.073578 
	C449.400208,238.715530 448.695557,226.357483 448.103607,213.150452 
	C447.364777,209.446609 446.625916,205.742752 445.954956,201.338150 
	C445.591217,200.229950 445.227478,199.121750 444.942566,197.320068 
	C444.620789,196.215118 444.299011,195.110153 444.024689,193.304413 
	C443.638763,192.210068 443.252838,191.115723 442.931519,189.324341 
	C442.567322,188.228424 442.203125,187.132492 441.866089,185.394318 
	C441.536469,184.606064 441.206848,183.817825 440.887360,182.337265 
	C440.254669,180.893692 439.621979,179.450119 439.017273,177.263565 
	C438.299835,175.193787 437.582397,173.124008 436.691193,170.387100 
	C435.784363,168.265396 434.877563,166.143707 433.723541,163.364075 
	C430.824982,157.903702 427.926422,152.443344 424.946228,146.268707 
	C420.971985,140.170563 416.997711,134.072433 412.940033,127.296837 
	C411.627228,125.534081 410.314423,123.771324 408.719543,121.419098 
	C407.475739,119.954956 406.231934,118.490814 404.716461,116.412254 
	C401.847504,113.223129 398.978516,110.034004 395.777527,106.272659 
	C390.572479,101.433411 385.367432,96.594154 379.740448,91.278641 
	C378.477997,90.209198 377.215576,89.139755 375.638306,87.486008 
	C373.109741,85.616074 370.581207,83.746140 367.719635,81.403412 
	C367.207336,81.143257 366.695038,80.883095 365.795776,80.128860 
z"/>
<path fill="#9F6020" opacity="1.000000" stroke="none" 
	d="
M164.008331,64.023834 
	C182.923615,54.146805 203.111801,48.304707 224.178589,45.535522 
	C266.133179,40.020676 305.988098,46.789600 343.726196,67.130753 
	C342.700104,68.964073 341.619110,70.391350 340.229523,71.388580 
	C336.867493,73.801292 333.361511,76.013451 329.544556,78.238747 
	C312.621857,70.587746 295.435242,65.237740 277.340240,62.707588 
	C253.483719,59.371815 229.690414,59.750736 206.623764,66.526680 
	C191.122177,71.080353 176.366867,78.174461 160.954620,83.885788 
	C160.603500,81.720161 160.237488,79.731537 160.613586,77.894875 
	C161.567810,73.234879 162.854660,68.642990 164.008331,64.023834 
z"/>
<path fill="#9F6020" opacity="1.000000" stroke="none" 
	d="
M146.340805,412.241516 
	C125.153297,399.805267 107.615562,383.324127 92.943802,363.424744 
	C97.187614,359.607910 101.235901,356.249847 105.566719,353.054443 
	C120.393372,372.660522 138.553055,388.069244 159.024414,401.254272 
	C156.853470,407.632599 152.179169,410.631744 146.340805,412.241516 
z"/>
<path fill="#B67929" opacity="1.000000" stroke="none" 
	d="
M431.944550,325.987518 
	C426.132172,339.192474 419.268799,351.764496 409.138824,362.930664 
	C401.320618,367.399353 394.160919,371.703339 386.642273,376.041779 
	C384.116608,377.233185 382.064880,378.941650 379.757294,379.422485 
	C375.955536,380.214661 373.638153,385.516632 368.994812,382.648254 
	C383.587128,370.095703 395.513672,355.659332 406.409790,339.999176 
	C410.934418,337.417389 415.004578,334.686279 419.271332,332.307861 
	C423.390259,330.011810 427.711914,328.079559 431.944550,325.987518 
z"/>
<path fill="#9F6020" opacity="1.000000" stroke="none" 
	d="
M53.117870,263.993805 
	C51.051090,244.408005 51.525997,224.923218 56.041122,205.282440 
	C57.808815,205.754608 59.201153,206.316666 60.100937,207.320297 
	C63.521065,211.135162 66.782005,215.092758 70.141731,219.452133 
	C69.748070,230.269882 69.315125,240.632523 68.500259,251.009705 
	C67.419044,251.751312 66.318855,252.368637 66.085030,253.223053 
	C64.472511,259.115356 59.264008,263.534912 53.117870,263.993805 
z"/>
<path fill="#9F6020" opacity="1.000000" stroke="none" 
	d="
M447.990906,213.999435 
	C448.695557,226.357483 449.400208,238.715530 449.648743,251.541290 
	C444.102661,254.183594 439.609406,259.544525 433.188232,254.529694 
	C433.061737,244.374359 433.006683,234.682281 433.304688,224.931076 
	C436.775787,219.059845 440.641998,214.234039 447.990906,213.999435 
z"/>
<path fill="#B78230" opacity="1.000000" stroke="none" 
	d="
M368.839172,382.951447 
	C373.638153,385.516632 375.955536,380.214661 379.757294,379.422485 
	C382.064880,378.941650 384.116608,377.233185 386.592896,376.379730 
	C382.112732,380.358185 377.314148,384.021698 372.535706,387.711304 
	C367.680145,391.460419 362.844421,395.235229 357.689453,399.152344 
	C355.431396,400.516113 353.455688,401.683563 351.541046,402.943756 
	C340.458069,410.238281 329.343414,417.486298 318.337982,424.896332 
	C313.760742,427.978210 309.426880,431.421600 304.982330,434.700562 
	C299.259003,436.109802 293.535706,437.519043 287.448303,438.554565 
	C290.855255,435.727081 294.600464,433.232605 298.401886,430.826935 
	C311.589111,422.481873 324.800995,414.175690 337.957916,405.783295 
	C338.216461,405.618378 337.917633,404.579712 338.091370,403.679535 
	C348.482300,396.590729 358.660736,389.771088 368.839172,382.951447 
z"/>
<path fill="#A66923" opacity="1.000000" stroke="none" 
	d="
M265.985474,441.687469 
	C256.969086,441.777252 247.952713,441.867065 238.480255,441.514465 
	C238.180511,440.443665 238.128342,439.488770 238.524414,439.235870 
	C244.485001,435.429779 250.520798,431.741699 256.493347,427.954010 
	C257.428619,427.360870 258.139435,426.413788 259.349854,425.502991 
	C260.573578,425.360840 261.401520,425.346008 262.181213,425.708923 
	C262.478027,426.506744 262.823059,426.926819 263.168091,427.346893 
	C263.316437,426.640717 263.464752,425.934570 264.008667,425.132019 
	C268.268127,424.756683 272.132050,424.477722 276.080414,424.542267 
	C277.679718,425.559265 279.194519,426.232727 281.575500,427.291290 
	C278.551453,429.702942 275.889404,431.572144 273.534943,433.770752 
	C270.874329,436.255310 268.489990,439.035736 265.985474,441.687469 
z"/>
<path fill="#BF8E34" opacity="1.000000" stroke="none" 
	d="
M305.354492,434.705292 
	C309.426880,431.421600 313.760742,427.978210 318.337982,424.896332 
	C329.343414,417.486298 340.458069,410.238281 351.541046,402.943756 
	C353.455688,401.683563 355.431396,400.516113 358.047485,399.116882 
	C368.424957,393.527466 378.115173,388.092865 387.863861,382.765259 
	C389.249634,382.007996 391.299225,379.334778 392.129822,383.395203 
	C391.051331,384.554779 389.972778,385.714386 388.221313,386.973206 
	C385.667725,387.623871 383.513855,387.760254 381.948425,388.790558 
	C365.274323,399.765350 348.670532,410.847900 332.130127,422.023224 
	C330.791107,422.927917 330.062378,424.735840 329.050049,426.124023 
	C321.275574,428.986023 313.501099,431.848022 305.354492,434.705292 
z"/>
<path fill="#F3E68B" opacity="1.000000" stroke="none" 
	d="
M380.162384,91.754906 
	C385.367432,96.594154 390.572479,101.433411 395.878235,106.922073 
	C394.489044,108.956329 393.077637,110.439720 391.491150,111.703247 
	C389.019318,113.671890 386.428619,115.491280 383.573975,117.221779 
	C377.484741,111.721375 371.709839,106.373108 366.252625,100.870338 
	C371.100983,97.728867 375.631683,94.741890 380.162384,91.754906 
z"/>
<path fill="#E1C989" opacity="1.000000" stroke="none" 
	d="
M84.780411,133.839447 
	C85.937637,131.980057 87.094856,130.120667 88.921814,128.175308 
	C90.060905,129.211349 90.548958,130.325958 90.995262,131.457047 
	C91.686577,133.209015 92.349403,134.972214 93.024315,136.730652 
	C94.616150,135.711975 96.291267,134.798355 97.764610,133.630234 
	C98.498718,133.048203 98.990540,132.054459 99.374832,131.154266 
	C102.238800,124.445305 105.196251,117.769051 107.774895,110.950371 
	C108.451408,109.161491 107.900352,106.908386 107.913040,104.868469 
	C109.552612,103.223259 111.192184,101.578049 113.480148,100.037750 
	C114.097298,101.205528 114.323746,102.356712 113.994514,103.317482 
	C111.057915,111.887123 107.954323,120.400108 105.082153,128.990707 
	C104.576324,130.503616 104.917786,132.299774 104.770424,134.286316 
	C100.778091,140.404449 96.883301,146.201370 92.625931,151.961823 
	C88.970390,151.116516 87.407677,148.929413 86.917198,145.644409 
	C86.326942,141.691208 85.503120,137.772873 84.780411,133.839447 
z"/>
<path fill="#FDFCE0" opacity="1.000000" stroke="none" 
	d="
M413.023468,127.974281 
	C416.997711,134.072433 420.971985,140.170563 424.595581,146.632294 
	C418.075470,147.175934 415.513000,152.257324 411.709351,155.819580 
	C406.968170,148.740875 402.498627,141.863800 398.409912,134.983490 
	C403.534943,132.644913 408.279205,130.309601 413.023468,127.974281 
z"/>
<path fill="#D1A441" opacity="1.000000" stroke="none" 
	d="
M445.885071,283.990234 
	C444.215424,290.504303 442.545746,297.018311 440.284851,303.803314 
	C436.698212,305.328461 433.631165,306.437622 430.725220,307.872986 
	C426.951050,309.737213 423.305054,311.860931 419.670166,313.490997 
	C422.210114,306.071594 424.683777,299.034119 427.552521,291.997131 
	C430.088318,291.365906 432.349731,290.989777 434.344177,290.048157 
	C438.269531,288.194885 442.046631,286.027618 445.885071,283.990234 
z"/>
<path fill="#F4E67C" opacity="1.000000" stroke="none" 
	d="
M69.923950,325.027222 
	C67.352615,318.916687 64.781288,312.806183 62.587143,306.337585 
	C67.373184,302.560944 71.782036,299.142303 76.437439,295.994141 
	C79.066040,302.853363 81.448097,309.442139 83.488029,316.066772 
	C80.356804,318.221130 77.623161,320.418823 74.755768,322.425415 
	C73.267212,323.467072 71.542175,324.170837 69.923950,325.027222 
z"/>
<path fill="#C79B40" opacity="1.000000" stroke="none" 
	d="
M329.423462,426.112671 
	C330.062378,424.735840 330.791107,422.927917 332.130127,422.023224 
	C348.670532,410.847900 365.274323,399.765350 381.948425,388.790558 
	C383.513855,387.760254 385.667725,387.623871 387.956238,387.111511 
	C373.856171,401.886932 356.848206,413.068451 338.418640,422.213104 
	C335.596466,423.613464 332.673309,424.810333 329.423462,426.112671 
z"/>
<path fill="#FEFDD5" opacity="1.000000" stroke="none" 
	d="
M411.981018,156.021240 
	C415.513000,152.257324 418.075470,147.175934 424.636414,146.989441 
	C427.926422,152.443344 430.824982,157.903702 433.492737,163.720764 
	C428.782349,166.716614 424.302704,169.355774 419.536346,171.820526 
	C416.826721,166.437836 414.403870,161.229538 411.981018,156.021240 
z"/>
<path fill="#B0792C" opacity="1.000000" stroke="none" 
	d="
M337.878845,403.948700 
	C337.917633,404.579712 338.216461,405.618378 337.957916,405.783295 
	C324.800995,414.175690 311.589111,422.481873 298.401886,430.826935 
	C294.600464,433.232605 290.855255,435.727081 287.038483,438.527527 
	C283.917297,439.447327 280.841858,440.020416 277.389099,440.197998 
	C278.047729,438.638367 278.880493,437.142944 280.152100,436.362854 
	C289.701111,430.505096 299.361084,424.828125 308.905487,418.963013 
	C309.816101,418.403473 310.173706,416.943939 311.031738,415.632446 
	C320.143250,411.558044 329.011047,407.753357 337.878845,403.948700 
z"/>
<path fill="#AB7027" opacity="1.000000" stroke="none" 
	d="
M310.788055,415.902222 
	C310.173706,416.943939 309.816101,418.403473 308.905487,418.963013 
	C299.361084,424.828125 289.701111,430.505096 280.152100,436.362854 
	C278.880493,437.142944 278.047729,438.638367 277.002655,440.136383 
	C273.606049,440.923157 270.218536,441.376068 266.408264,441.758240 
	C268.489990,439.035736 270.874329,436.255310 273.534943,433.770752 
	C275.889404,431.572144 278.551453,429.702942 281.575500,427.291290 
	C279.194519,426.232727 277.679718,425.559265 276.461365,424.419556 
	C288.101227,421.269623 299.444641,418.585907 310.788055,415.902222 
z"/>
<path fill="#D3AE68" opacity="1.000000" stroke="none" 
	d="
M71.091293,158.024185 
	C74.135452,152.320404 77.179611,146.616623 80.661530,141.105225 
	C81.396973,144.740738 81.185242,148.330475 82.123032,151.589401 
	C83.260376,155.541809 85.368462,159.214874 87.006142,163.370850 
	C84.671349,168.898178 82.386948,174.063446 79.951462,178.899475 
	C77.870712,173.025604 75.766747,167.532333 74.108780,161.907623 
	C73.551010,160.015350 74.194527,157.738449 71.091293,158.024185 
z"/>
<path fill="#BE872F" opacity="1.000000" stroke="none" 
	d="
M392.432312,383.224243 
	C391.299225,379.334778 389.249634,382.007996 387.863861,382.765259 
	C378.115173,388.092865 368.424957,393.527466 358.358032,398.963348 
	C362.844421,395.235229 367.680145,391.460419 372.535706,387.711304 
	C377.314148,384.021698 382.112732,380.358185 386.951843,376.345276 
	C394.160919,371.703339 401.320618,367.399353 408.851440,363.093231 
	C403.726624,369.745178 398.230713,376.399261 392.432312,383.224243 
z"/>
<path fill="#E5D091" opacity="1.000000" stroke="none" 
	d="
M107.621933,105.032516 
	C107.900352,106.908386 108.451408,109.161491 107.774895,110.950371 
	C105.196251,117.769051 102.238800,124.445305 99.374832,131.154266 
	C98.990540,132.054459 98.498718,133.048203 97.764610,133.630234 
	C96.291267,134.798355 94.616150,135.711975 93.024315,136.730652 
	C92.349403,134.972214 91.686577,133.209015 90.995262,131.457047 
	C90.548958,130.325958 90.060905,129.211349 89.194519,127.994629 
	C94.975266,120.332130 101.153046,112.764343 107.621933,105.032516 
z"/>
<path fill="#E1C989" opacity="1.000000" stroke="none" 
	d="
M196.853043,434.337769 
	C192.109634,432.943878 187.366226,431.550018 182.352081,429.635925 
	C184.493744,427.185730 186.962357,425.321106 189.302521,423.307220 
	C191.596313,421.333221 193.759338,419.207275 196.360107,417.146423 
	C200.827942,418.423035 204.915390,419.701172 208.860443,421.281403 
	C206.774200,423.594055 204.798538,425.575073 202.895187,427.623260 
	C200.845810,429.828613 198.864212,432.096924 196.853043,434.337769 
z"/>
<path fill="#F1E3A5" opacity="1.000000" stroke="none" 
	d="
M383.888275,117.373917 
	C386.428619,115.491280 389.019318,113.671890 391.491150,111.703247 
	C393.077637,110.439720 394.489044,108.956329 396.044220,107.208176 
	C398.978516,110.034004 401.847504,113.223129 404.810791,117.067200 
	C400.308167,120.468658 395.711243,123.215172 390.925171,125.684250 
	C388.453461,122.729179 386.170868,120.051552 383.888275,117.373917 
z"/>
<path fill="#AE742F" opacity="1.000000" stroke="none" 
	d="
M448.047241,213.574951 
	C440.641998,214.234039 436.775787,219.059845 433.151123,224.565552 
	C432.109253,219.837433 431.574066,215.415710 431.379639,210.939240 
	C435.579102,206.552979 439.585602,202.458145 445.887085,202.038910 
	C446.625916,205.742752 447.364777,209.446609 448.047241,213.574951 
z"/>
<path fill="#A66923" opacity="1.000000" stroke="none" 
	d="
M163.651016,64.054115 
	C162.854660,68.642990 161.567810,73.234879 160.613586,77.894875 
	C160.237488,79.731537 160.603500,81.720161 160.737732,84.156326 
	C156.595856,87.233948 152.347824,89.794846 148.073654,91.930420 
	C148.559006,89.273911 148.991669,87.021049 149.597794,84.815857 
	C151.028458,79.610710 152.541687,74.428253 154.021515,69.236610 
	C157.112244,67.519211 160.202972,65.801804 163.651016,64.054115 
z"/>
<path fill="#CA9F59" opacity="1.000000" stroke="none" 
	d="
M127.052635,87.308250 
	C130.142303,84.916496 133.231979,82.524742 136.651108,80.429855 
	C134.910629,86.419464 132.647537,92.052139 130.850449,97.829750 
	C129.921844,100.815216 129.820480,104.057991 129.164093,107.474464 
	C125.996429,110.554062 123.010040,113.343704 119.890236,115.785385 
	C120.410080,112.164131 120.889206,108.844032 121.753937,105.627602 
	C123.404022,99.489929 125.273956,93.411354 127.052635,87.308250 
z"/>
<path fill="#AE742F" opacity="1.000000" stroke="none" 
	d="
M258.954041,425.630341 
	C258.139435,426.413788 257.428619,427.360870 256.493347,427.954010 
	C250.520798,431.741699 244.485001,435.429779 238.524414,439.235870 
	C238.128342,439.488770 238.180511,440.443665 238.020081,441.425934 
	C233.961166,441.429504 229.906357,441.079224 225.455200,440.239227 
	C230.652130,434.420410 235.857101,428.441925 244.410706,428.006317 
	C245.871902,427.931915 247.340134,427.995819 248.805115,427.995819 
	C248.757095,427.799072 248.709091,427.602325 248.661072,427.405579 
	C247.134827,426.859528 245.608597,426.313477 244.550873,425.720764 
	C249.664276,425.659576 254.309158,425.644958 258.954041,425.630341 
z"/>
<path fill="#A66923" opacity="1.000000" stroke="none" 
	d="
M70.102448,218.997009 
	C66.782005,215.092758 63.521065,211.135162 60.100937,207.320297 
	C59.201153,206.316666 57.808815,205.754608 56.266983,204.974609 
	C56.644939,201.120880 57.398582,197.282333 58.692268,193.193115 
	C60.479824,194.116943 61.819660,195.208893 62.957092,196.481720 
	C66.062981,199.957352 69.083496,203.509247 72.147263,207.459473 
	C71.471962,211.591003 70.787201,215.294006 70.102448,218.997009 
z"/>
<path fill="#DCC17C" opacity="1.000000" stroke="none" 
	d="
M104.867966,133.965134 
	C104.917786,132.299774 104.576324,130.503616 105.082153,128.990707 
	C107.954323,120.400108 111.057915,111.887123 113.994514,103.317482 
	C114.323746,102.356712 114.097298,101.205528 113.789627,99.972214 
	C116.043335,97.185646 118.635963,94.569504 121.560440,92.257233 
	C118.803947,102.043892 115.691818,111.519196 112.697632,121.031616 
	C112.548134,121.506554 113.422089,122.303627 113.717468,123.262344 
	C110.699615,127.037704 107.783791,130.501419 104.867966,133.965134 
z"/>
<path fill="#DBB956" opacity="1.000000" stroke="none" 
	d="
M77.882843,341.041290 
	C76.571190,338.673828 75.259537,336.306335 73.980789,333.228821 
	C78.008850,328.702454 82.004005,324.886169 86.264801,321.278931 
	C88.067322,324.637238 89.604210,327.786530 90.766365,330.949829 
	C88.878563,331.850281 87.204323,332.546295 85.885864,333.662567 
	C83.119095,336.005096 80.539360,338.568542 77.882843,341.041290 
z"/>
<path fill="#BE872F" opacity="1.000000" stroke="none" 
	d="
M432.195923,325.745270 
	C427.711914,328.079559 423.390259,330.011810 419.271332,332.307861 
	C415.004578,334.686279 410.934418,337.417389 406.460327,339.656555 
	C407.839569,336.550110 409.536804,333.781433 411.587219,331.004242 
	C414.278290,329.510895 416.513763,327.822723 418.974976,326.582611 
	C424.472656,323.812439 428.457184,318.104156 435.374573,318.097595 
	C434.398804,320.566071 433.423035,323.034546 432.195923,325.745270 
z"/>
<path fill="#DCC17C" opacity="1.000000" stroke="none" 
	d="
M87.056534,163.008804 
	C85.368462,159.214874 83.260376,155.541809 82.123032,151.589401 
	C81.185242,148.330475 81.396973,144.740738 80.916367,140.855957 
	C81.900124,138.350327 83.066818,136.286377 84.506966,134.030930 
	C85.503120,137.772873 86.326942,141.691208 86.917198,145.644409 
	C87.407677,148.929413 88.970390,151.116516 92.574875,152.309448 
	C90.943115,156.132004 88.999825,159.570404 87.056534,163.008804 
z"/>
<path fill="#A66923" opacity="1.000000" stroke="none" 
	d="
M53.060711,264.406250 
	C59.264008,263.534912 64.472511,259.115356 66.085030,253.223053 
	C66.318855,252.368637 67.419044,251.751312 68.595490,251.428436 
	C69.295761,255.216476 69.518860,258.600311 69.390129,261.995056 
	C68.299988,262.735962 67.502617,263.415833 66.833351,264.204407 
	C63.428959,268.215607 60.120922,272.344818 54.345253,272.972137 
	C53.898018,270.254333 53.450783,267.536499 53.060711,264.406250 
z"/>
<path fill="#AE742F" opacity="1.000000" stroke="none" 
	d="
M72.137817,207.030945 
	C69.083496,203.509247 66.062981,199.957352 62.957092,196.481720 
	C61.819660,195.208893 60.479824,194.116943 58.846275,192.867798 
	C59.428814,189.291016 60.397392,185.788925 61.800659,182.321625 
	C63.385765,184.048706 64.671906,185.665817 65.659081,187.448502 
	C67.895889,191.487793 69.102699,196.316498 74.176453,198.444122 
	C73.484207,201.573318 72.811012,204.302124 72.137817,207.030945 
z"/>
<path fill="#B0792C" opacity="1.000000" stroke="none" 
	d="
M449.305206,259.985748 
	C449.138275,262.382874 448.971375,264.779999 448.358765,267.638428 
	C445.931519,269.207947 444.015320,270.460754 441.953949,271.392365 
	C438.332520,273.029053 434.622284,274.469177 430.921692,275.575562 
	C431.310394,272.436646 431.726685,269.713715 432.527557,266.993591 
	C434.749329,266.424957 436.664093,266.026825 438.407654,265.246246 
	C442.087616,263.598755 445.678040,261.751221 449.305206,259.985748 
z"/>
<path fill="#AE742F" opacity="1.000000" stroke="none" 
	d="
M153.695618,69.276871 
	C152.541687,74.428253 151.028458,79.610710 149.597794,84.815857 
	C148.991669,87.021049 148.559006,89.273911 147.889130,92.200638 
	C145.173737,94.676872 142.616699,96.457565 140.049042,97.826553 
	C141.164703,93.653107 142.236542,89.873970 143.431366,86.134132 
	C144.862686,81.654053 146.398987,77.207520 147.889832,72.746460 
	C149.716461,71.603355 151.543076,70.460236 153.695618,69.276871 
z"/>
<path fill="#A66923" opacity="1.000000" stroke="none" 
	d="
M449.486145,259.573303 
	C445.678040,261.751221 442.087616,263.598755 438.407654,265.246246 
	C436.664093,266.026825 434.749329,266.424957 432.489899,266.661072 
	C432.159943,265.892426 432.252228,265.459106 432.664673,265.014465 
	C433.511963,264.716400 434.039093,264.429596 434.566223,264.142792 
	C433.968292,263.744843 433.370331,263.346863 432.733643,262.507080 
	C432.883148,259.707794 433.071411,257.350372 433.259705,254.992950 
	C439.609406,259.544525 444.102661,254.183594 449.558533,252.002197 
	C449.838623,254.383896 449.752869,256.772369 449.486145,259.573303 
z"/>
<path fill="#DCC17C" opacity="1.000000" stroke="none" 
	d="
M368.052643,81.876205 
	C370.581207,83.746140 373.109741,85.616074 375.649078,88.075073 
	C371.122437,91.770782 366.585052,94.877419 361.736145,97.856438 
	C359.307007,96.142502 357.189362,94.556190 355.383820,92.828789 
	C357.465302,91.789680 359.523834,91.210503 360.941528,89.924744 
	C363.586243,87.526199 368.257355,86.799973 368.052643,81.876205 
z"/>
<path fill="#C79B40" opacity="1.000000" stroke="none" 
	d="
M446.037018,283.624268 
	C442.046631,286.027618 438.269531,288.194885 434.344177,290.048157 
	C432.349731,290.989777 430.088318,291.365906 427.539673,291.619263 
	C427.805603,288.822296 428.479462,286.403748 429.534851,283.987427 
	C431.741943,283.356842 433.648315,282.891510 435.376740,282.057312 
	C439.346771,280.141174 443.230164,278.045349 447.148743,276.022461 
	C446.828827,278.434448 446.508881,280.846375 446.037018,283.624268 
z"/>
<path fill="#EAD36C" opacity="1.000000" stroke="none" 
	d="
M76.190895,295.723694 
	C71.782036,299.142303 67.373184,302.560944 62.601635,305.970947 
	C61.470367,303.576721 60.701797,301.191162 60.311195,298.407288 
	C62.320202,297.301910 64.119553,296.835754 65.547615,295.838135 
	C68.624954,293.688324 71.511398,291.265289 74.670059,289.229370 
	C75.306396,291.577698 75.748642,293.650696 76.190895,295.723694 
z"/>
<path fill="#B7823C" opacity="1.000000" stroke="none" 
	d="
M244.082352,425.767395 
	C245.608597,426.313477 247.134827,426.859528 248.661072,427.405579 
	C248.709091,427.602325 248.757095,427.799072 248.805115,427.995819 
	C247.340134,427.995819 245.871902,427.931915 244.410706,428.006317 
	C235.857101,428.441925 230.652130,434.420410 225.058929,440.076385 
	C222.561188,440.101990 220.063339,439.800751 217.413254,438.979004 
	C218.733765,437.180511 220.102432,435.751160 221.698898,434.652893 
	C226.420807,431.404388 231.232712,428.286743 236.415665,425.059998 
	C239.242065,425.257202 241.662201,425.512299 244.082352,425.767395 
z"/>
<path fill="#B7823C" opacity="1.000000" stroke="none" 
	d="
M147.568176,72.845596 
	C146.398987,77.207520 144.862686,81.654053 143.431366,86.134132 
	C142.236542,89.873970 141.164703,93.653107 139.883270,98.113800 
	C137.591232,100.462616 135.454330,102.112473 133.242615,103.322052 
	C134.608765,98.260971 135.991318,93.620888 137.507980,89.025070 
	C138.878967,84.870651 140.396500,80.764587 141.849411,76.637192 
	C143.648453,75.406372 145.447495,74.175560 147.568176,72.845596 
z"/>
<path fill="#A66923" opacity="1.000000" stroke="none" 
	d="
M105.284195,352.891815 
	C101.235901,356.249847 97.187614,359.607910 92.790886,363.108398 
	C90.997070,361.406494 89.551689,359.562164 88.227707,357.109619 
	C92.514893,353.337189 96.680695,350.173004 101.021217,347.297180 
	C102.558693,349.354279 103.921440,351.123047 105.284195,352.891815 
z"/>
<path fill="#BD8F48" opacity="1.000000" stroke="none" 
	d="
M64.444496,173.810959 
	C65.503777,171.068680 66.563057,168.326416 68.190659,165.362137 
	C69.515068,167.049164 70.412270,168.915863 70.999779,170.875427 
	C72.537704,176.005096 72.782448,181.750244 78.028824,185.384613 
	C77.298340,187.841431 76.589394,189.925507 75.547089,191.948395 
	C72.793877,187.446640 70.437614,182.969604 67.922150,178.583878 
	C66.948563,176.886429 65.614388,175.395813 64.444496,173.810959 
z"/>
<path fill="#D3AE68" opacity="1.000000" stroke="none" 
	d="
M113.819504,122.950714 
	C113.422089,122.303627 112.548134,121.506554 112.697632,121.031616 
	C115.691818,111.519196 118.803947,102.043892 121.889618,92.160614 
	C123.409920,90.334579 124.932884,88.909035 126.754242,87.395874 
	C125.273956,93.411354 123.404022,99.489929 121.753937,105.627602 
	C120.889206,108.844032 120.410080,112.164131 119.771706,116.088150 
	C117.797562,118.809486 115.808533,120.880104 113.819504,122.950714 
z"/>
<path fill="#BF8E34" opacity="1.000000" stroke="none" 
	d="
M435.589722,317.901794 
	C428.457184,318.104156 424.472656,323.812439 418.974976,326.582611 
	C416.513763,327.822723 414.278290,329.510895 411.649536,330.670776 
	C412.886383,327.562469 414.414124,324.779083 416.318054,321.992340 
	C418.443909,321.176453 420.268524,320.492981 421.929321,319.527618 
	C427.291443,316.410919 432.593262,313.190460 437.918335,310.010010 
	C437.213837,312.575348 436.509338,315.140656 435.589722,317.901794 
z"/>
<path fill="#C79B40" opacity="1.000000" stroke="none" 
	d="
M438.081909,309.684082 
	C432.593262,313.190460 427.291443,316.410919 421.929321,319.527618 
	C420.268524,320.492981 418.443909,321.176453 416.335938,321.634949 
	C417.186371,318.811584 418.395142,316.342255 419.603882,313.872925 
	C423.305054,311.860931 426.951050,309.737213 430.725220,307.872986 
	C433.631165,306.437622 436.698212,305.328461 440.112793,304.107178 
	C439.769806,305.879425 439.007660,307.618805 438.081909,309.684082 
z"/>
<path fill="#B7823C" opacity="1.000000" stroke="none" 
	d="
M64.270248,174.098297 
	C65.614388,175.395813 66.948563,176.886429 67.922150,178.583878 
	C70.437614,182.969604 72.793877,187.446640 75.557892,192.307892 
	C75.333206,194.500305 74.764359,196.272018 74.195518,198.043747 
	C69.102699,196.316498 67.895889,191.487793 65.659081,187.448502 
	C64.671906,185.665817 63.385765,184.048706 62.046268,182.038849 
	C62.603458,179.276077 63.349735,176.830856 64.270248,174.098297 
z"/>
<path fill="#BE872F" opacity="1.000000" stroke="none" 
	d="
M447.167511,275.640137 
	C443.230164,278.045349 439.346771,280.141174 435.376740,282.057312 
	C433.648315,282.891510 431.741943,283.356842 429.511261,283.598816 
	C429.720490,280.802460 430.334839,278.397034 430.949219,275.991608 
	C434.622284,274.469177 438.332520,273.029053 441.953949,271.392365 
	C444.015320,270.460754 445.931519,269.207947 448.238831,268.036499 
	C448.105133,270.401428 447.645721,272.829651 447.167511,275.640137 
z"/>
<path fill="#B0792C" opacity="1.000000" stroke="none" 
	d="
M54.282776,273.352112 
	C60.120922,272.344818 63.428959,268.215607 66.833351,264.204407 
	C67.502617,263.415833 68.299988,262.735962 69.496994,262.403503 
	C70.253426,265.528839 70.551147,268.256683 70.509338,271.030334 
	C65.403717,274.391296 60.637623,277.706451 55.871529,281.021606 
	C55.321117,278.591766 54.770710,276.161926 54.282776,273.352112 
z"/>
<path fill="#CA9F59" opacity="1.000000" stroke="none" 
	d="
M78.050369,185.011887 
	C72.782448,181.750244 72.537704,176.005096 70.999779,170.875427 
	C70.412270,168.915863 69.515068,167.049164 68.396484,165.073914 
	C68.890526,162.844009 69.747063,160.680344 70.847443,158.270432 
	C74.194527,157.738449 73.551010,160.015350 74.108780,161.907623 
	C75.766747,167.532333 77.870712,173.025604 79.771309,179.202942 
	C79.178284,181.561050 78.614326,183.286469 78.050369,185.011887 
z"/>
<path fill="#F1E3A5" opacity="1.000000" stroke="none" 
	d="
M436.864960,171.054245 
	C437.582397,173.124008 438.299835,175.193787 438.646088,177.667358 
	C433.768433,180.718353 429.261963,183.365585 424.516418,185.784943 
	C423.542816,183.379074 422.808319,181.201080 422.418518,178.978851 
	C427.463776,176.307816 432.164368,173.681030 436.864960,171.054245 
z"/>
<path fill="#A66923" opacity="1.000000" stroke="none" 
	d="
M329.913574,78.306458 
	C333.361511,76.013451 336.867493,73.801292 340.229523,71.388580 
	C341.619110,70.391350 342.700104,68.964073 343.959717,67.386406 
	C345.785217,67.990883 347.572510,68.941330 349.624115,70.397385 
	C345.168640,74.314758 340.448822,77.726540 335.401337,81.090134 
	C333.353638,80.130119 331.633606,79.218292 329.913574,78.306458 
z"/>
<path fill="#F9F3B9" opacity="1.000000" stroke="none" 
	d="
M436.778076,170.720673 
	C432.164368,173.681030 427.463776,176.307816 422.246735,178.652374 
	C421.094543,176.245071 420.458832,174.120010 419.823090,171.994934 
	C424.302704,169.355774 428.782349,166.716614 433.616364,164.049744 
	C434.877563,166.143707 435.784363,168.265396 436.778076,170.720673 
z"/>
<path fill="#DCC17C" opacity="1.000000" stroke="none" 
	d="
M197.121674,434.555969 
	C198.864212,432.096924 200.845810,429.828613 202.895187,427.623260 
	C204.798538,425.575073 206.774200,423.594055 209.255249,421.268799 
	C212.203568,421.540710 214.614670,422.127258 216.983429,423.075958 
	C216.391998,423.968567 215.857239,424.514801 215.291565,425.026855 
	C211.154144,428.771973 207.010513,432.510315 202.868851,436.250763 
	C201.042664,435.758575 199.216492,435.266388 197.121674,434.555969 
z"/>
<path fill="#A66923" opacity="1.000000" stroke="none" 
	d="
M146.567596,412.520813 
	C152.179169,410.631744 156.853470,407.632599 159.376068,401.312408 
	C161.909622,402.301178 164.076218,403.604889 165.941132,405.080017 
	C161.363068,408.869263 157.086685,412.487061 152.810303,416.104828 
	C150.804977,415.003265 148.799683,413.901703 146.567596,412.520813 
z"/>
<path fill="#EAD36C" opacity="1.000000" stroke="none" 
	d="
M85.999161,321.069855 
	C82.004005,324.886169 78.008850,328.702454 73.938782,332.881287 
	C72.574417,330.746399 71.284950,328.248993 69.959724,325.389404 
	C71.542175,324.170837 73.267212,323.467072 74.755768,322.425415 
	C77.623161,320.418823 80.356804,318.221130 83.674957,316.359131 
	C84.802391,318.100342 85.400780,319.585114 85.999161,321.069855 
z"/>
<path fill="#DBB956" opacity="1.000000" stroke="none" 
	d="
M74.475975,288.954071 
	C71.511398,291.265289 68.624954,293.688324 65.547615,295.838135 
	C64.119553,296.835754 62.320202,297.301910 60.312080,298.020630 
	C59.327484,296.253998 58.719982,294.475830 58.510376,292.334442 
	C60.625793,291.125977 62.523655,290.519196 64.023056,289.385468 
	C67.088600,287.067566 69.939964,284.466400 72.984085,282.373047 
	C73.551086,284.827454 74.013535,286.890778 74.475975,288.954071 
z"/>
<path fill="#FEFDD5" opacity="1.000000" stroke="none" 
	d="
M412.981750,127.635559 
	C408.279205,130.309601 403.534943,132.644913 398.260986,134.694611 
	C397.152802,133.292084 396.574280,132.175156 396.183929,130.773499 
	C400.581909,127.662010 404.791748,124.835281 409.001617,122.008560 
	C410.314423,123.771324 411.627228,125.534081 412.981750,127.635559 
z"/>
<path fill="#BF8E34" opacity="1.000000" stroke="none" 
	d="
M55.851425,281.413971 
	C60.637623,277.706451 65.403717,274.391296 70.648300,271.384094 
	C71.345543,273.453979 71.564308,275.215881 71.449936,277.026245 
	C66.419090,280.381866 61.721382,283.689087 57.023666,286.996277 
	C56.626217,285.266296 56.228771,283.536316 55.851425,281.413971 
z"/>
<path fill="#D3AE68" opacity="1.000000" stroke="none" 
	d="
M203.129974,436.494812 
	C207.010513,432.510315 211.154144,428.771973 215.291565,425.026855 
	C215.857239,424.514801 216.391998,423.968567 217.378784,423.101624 
	C219.559189,423.065277 221.301880,423.365509 223.005066,424.028076 
	C219.426056,427.202637 215.771423,429.885590 212.401398,432.888031 
	C210.969208,434.163940 210.133347,436.109192 209.026474,437.750244 
	C207.148026,437.413116 205.269562,437.075958 203.129974,436.494812 
z"/>
<path fill="#BD8F48" opacity="1.000000" stroke="none" 
	d="
M141.526123,76.732712 
	C140.396500,80.764587 138.878967,84.870651 137.507980,89.025070 
	C135.991318,93.620888 134.608765,98.260971 133.070038,103.553062 
	C131.763306,105.211067 130.554337,106.197784 129.345352,107.184509 
	C129.820480,104.057991 129.921844,100.815216 130.850449,97.829750 
	C132.647537,92.052139 134.910629,86.419464 136.979172,80.332199 
	C138.386139,78.901199 139.794495,77.864716 141.526123,76.732712 
z"/>
<path fill="#F9F3B9" opacity="1.000000" stroke="none" 
	d="
M408.860596,121.713821 
	C404.791748,124.835281 400.581909,127.662010 395.894531,130.619629 
	C393.982788,129.154251 392.548553,127.557968 391.114319,125.961685 
	C395.711243,123.215172 400.308167,120.468658 404.946625,117.374405 
	C406.231934,118.490814 407.475739,119.954956 408.860596,121.713821 
z"/>
<path fill="#D3AE68" opacity="1.000000" stroke="none" 
	d="
M176.972656,427.786682 
	C175.084030,427.060822 173.195404,426.334961 171.401886,425.184387 
	C172.918945,423.689728 174.470993,422.753448 175.736404,421.522491 
	C178.564011,418.771942 181.248718,415.874512 184.349030,413.029846 
	C186.461212,413.732849 188.215988,414.442902 189.932617,415.491089 
	C188.035965,417.565369 186.184586,419.309204 184.317200,421.035706 
	C181.875626,423.293182 179.421417,425.536987 176.972656,427.786682 
z"/>
<path fill="#BD8F48" opacity="1.000000" stroke="none" 
	d="
M236.009399,425.117920 
	C231.232712,428.286743 226.420807,431.404388 221.698898,434.652893 
	C220.102432,435.751160 218.733765,437.180511 217.109741,438.766846 
	C215.437744,438.974487 213.917007,438.873871 212.283630,438.188843 
	C213.475861,436.391632 214.770706,435.167816 216.087646,433.968292 
	C219.389008,430.961182 222.700302,427.964996 226.461151,424.998535 
	C229.946259,425.061066 232.977829,425.089478 236.009399,425.117920 
z"/>
<path fill="#DCC17C" opacity="1.000000" stroke="none" 
	d="
M177.257996,427.982117 
	C179.421417,425.536987 181.875626,423.293182 184.317200,421.035706 
	C186.184586,419.309204 188.035965,417.565369 190.287689,415.482452 
	C192.447174,415.806458 194.213455,416.477203 195.979736,417.147949 
	C193.759338,419.207275 191.596313,421.333221 189.302521,423.307220 
	C186.962357,425.321106 184.493744,427.185730 182.031158,429.442993 
	C180.501740,429.239349 179.022552,428.708466 177.257996,427.982117 
z"/>
<path fill="#D1A441" opacity="1.000000" stroke="none" 
	d="
M56.983002,287.365723 
	C61.721382,283.689087 66.419090,280.381866 71.576904,277.373352 
	C72.317848,279.108673 72.598694,280.545288 72.879547,281.981903 
	C69.939964,284.466400 67.088600,287.067566 64.023056,289.385468 
	C62.523655,290.519196 60.625793,291.125977 58.551010,291.972229 
	C57.776608,290.560547 57.359470,289.147827 56.983002,287.365723 
z"/>
<path fill="#BD8F48" opacity="1.000000" stroke="none" 
	d="
M166.898773,423.377319 
	C165.412643,422.747772 163.926514,422.118195 162.273834,420.886322 
	C163.632431,418.816925 165.143845,417.335266 166.685867,415.886139 
	C169.111084,413.607025 171.556976,411.349854 174.347351,408.997986 
	C176.128601,409.651459 177.556610,410.390350 178.983917,411.491089 
	C177.909698,413.165192 176.973007,414.626984 175.735092,415.759552 
	C172.867096,418.383423 169.853394,420.848114 166.898773,423.377319 
z"/>
<path fill="#AE742F" opacity="1.000000" stroke="none" 
	d="
M335.729004,81.138321 
	C340.448822,77.726540 345.168640,74.314758 349.932800,70.565216 
	C351.443359,71.107658 352.909515,71.987869 354.634827,73.355438 
	C350.231232,77.240990 345.568512,80.639183 340.575134,83.979164 
	C338.739349,82.993408 337.234161,82.065865 335.729004,81.138321 
z"/>
<path fill="#AB7027" opacity="1.000000" stroke="none" 
	d="
M100.846497,347.008820 
	C96.680695,350.173004 92.514893,353.337189 88.157928,356.781372 
	C87.333862,356.281036 86.700974,355.500732 86.035797,354.048767 
	C89.921288,349.592865 93.839066,345.808624 97.958466,342.293579 
	C99.055542,344.044739 99.951019,345.526794 100.846497,347.008820 
z"/>
<path fill="#B7823C" opacity="1.000000" stroke="none" 
	d="
M340.905762,84.037369 
	C345.568512,80.639183 350.231232,77.240990 354.935913,73.508179 
	C356.230804,73.875359 357.483734,74.577156 358.861206,75.896126 
	C355.844482,82.166458 350.304901,84.267616 344.340271,86.135986 
	C342.990509,85.397408 341.948120,84.717384 340.905762,84.037369 
z"/>
<path fill="#F4E67C" opacity="1.000000" stroke="none" 
	d="
M362.047638,97.984062 
	C366.585052,94.877419 371.122437,91.770782 375.806488,88.367226 
	C377.215576,89.139755 378.477997,90.209198 379.951416,91.516777 
	C375.631683,94.741890 371.100983,97.728867 365.963043,100.750305 
	C364.253082,99.851204 363.150360,98.917633 362.047638,97.984062 
z"/>
<path fill="#CA9F59" opacity="1.000000" stroke="none" 
	d="
M167.110657,423.607727 
	C169.853394,420.848114 172.867096,418.383423 175.735092,415.759552 
	C176.973007,414.626984 177.909698,413.165192 179.328476,411.437073 
	C181.113022,411.693115 182.552322,412.364990 183.991638,413.036865 
	C181.248718,415.874512 178.564011,418.771942 175.736404,421.522491 
	C174.470993,422.753448 172.918945,423.689728 171.188660,424.920959 
	C169.694397,424.667511 168.508469,424.252808 167.110657,423.607727 
z"/>
<path fill="#B78230" opacity="1.000000" stroke="none" 
	d="
M97.756851,342.024414 
	C93.839066,345.808624 89.921288,349.592865 85.975395,353.750519 
	C84.972511,352.725708 83.997726,351.327484 83.009430,349.248352 
	C85.842255,343.787628 89.749092,340.349457 95.515182,338.987091 
	C96.454285,340.058014 97.105568,341.041229 97.756851,342.024414 
z"/>
<path fill="#AE742F" opacity="1.000000" stroke="none" 
	d="
M153.004639,416.359741 
	C157.086685,412.487061 161.363068,408.869263 166.263046,405.095001 
	C167.921570,405.660522 168.956512,406.382477 169.955505,407.444946 
	C165.492310,411.258484 161.065033,414.731537 156.637756,418.204590 
	C155.491501,417.674622 154.345230,417.144623 153.004639,416.359741 
z"/>
<path fill="#BF8E34" opacity="1.000000" stroke="none" 
	d="
M95.227356,338.899353 
	C89.749092,340.349457 85.842255,343.787628 82.935997,348.933777 
	C81.878670,347.789307 80.881271,346.278564 80.130440,344.297363 
	C84.547249,340.562256 88.717484,337.297546 93.101906,334.300720 
	C93.953178,336.012177 94.590263,337.455780 95.227356,338.899353 
z"/>
<path fill="#E5D091" opacity="1.000000" stroke="none" 
	d="
M424.755493,186.012817 
	C429.261963,183.365585 433.768433,180.718353 438.632080,178.038834 
	C439.621979,179.450119 440.254669,180.893692 440.503235,182.673080 
	C438.025452,183.840942 435.864227,184.537369 433.854492,185.538055 
	C431.096039,186.911530 428.452393,188.515594 425.509064,189.778046 
	C425.090881,188.361099 424.923187,187.186951 424.755493,186.012817 
z"/>
<path fill="#B7823C" opacity="1.000000" stroke="none" 
	d="
M445.921021,201.688538 
	C439.585602,202.458145 435.579102,206.552979 431.152527,210.640686 
	C430.385590,208.931000 430.186554,207.465134 430.327301,205.949097 
	C435.091766,202.716812 438.637878,197.952942 444.863708,198.013565 
	C445.227478,199.121750 445.591217,200.229950 445.921021,201.688538 
z"/>
<path fill="#B7823C" opacity="1.000000" stroke="none" 
	d="
M156.857056,418.473511 
	C161.065033,414.731537 165.492310,411.258484 170.286957,407.365479 
	C171.767593,407.658142 172.880859,408.370758 173.994110,409.083374 
	C171.556976,411.349854 169.111084,413.607025 166.685867,415.886139 
	C165.143845,417.335266 163.632431,418.816925 162.060867,420.618164 
	C160.368408,420.215698 158.722382,419.479034 156.857056,418.473511 
z"/>
<path fill="#BD8F48" opacity="1.000000" stroke="none" 
	d="
M344.647644,86.194534 
	C350.304901,84.267616 355.844482,82.166458 359.038391,76.151566 
	C359.977509,76.286743 360.864044,76.783653 361.894684,77.919510 
	C360.979919,80.059738 360.172516,81.862411 358.809723,82.999435 
	C355.991089,85.351135 352.876801,87.348518 349.561279,89.354294 
	C347.708160,88.209503 346.177887,87.202019 344.647644,86.194534 
z"/>
<path fill="#CA9F59" opacity="1.000000" stroke="none" 
	d="
M442.866913,190.021362 
	C443.252838,191.115723 443.638763,192.210068 443.628937,193.656876 
	C441.627014,194.695312 439.924133,195.218109 438.434723,196.101044 
	C435.275024,197.974136 432.226532,200.034851 428.994934,201.697327 
	C428.599274,200.254959 428.341125,199.133865 428.426483,197.969360 
	C433.468964,195.291092 438.167938,192.656219 442.866913,190.021362 
z"/>
<path fill="#DCC17C" opacity="1.000000" stroke="none" 
	d="
M425.759521,190.020844 
	C428.452393,188.515594 431.096039,186.911530 433.854492,185.538055 
	C435.864227,184.537369 438.025452,183.840942 440.498169,183.019226 
	C441.206848,183.817825 441.536469,184.606064 441.510620,185.748978 
	C436.485046,188.743423 431.814972,191.383209 426.963562,193.715775 
	C426.441345,192.279312 426.100433,191.150070 425.759521,190.020844 
z"/>
<path fill="#CA9F59" opacity="1.000000" stroke="none" 
	d="
M349.884125,89.491623 
	C352.876801,87.348518 355.991089,85.351135 358.809723,82.999435 
	C360.172516,81.862411 360.979919,80.059738 362.070679,78.172951 
	C363.333649,78.567917 364.564697,79.348389 365.907227,80.744125 
	C361.564362,84.641762 357.110016,87.924133 352.389709,91.129395 
	C351.377228,90.532059 350.630676,90.011841 349.884125,89.491623 
z"/>
<path fill="#D1A441" opacity="1.000000" stroke="none" 
	d="
M92.887718,334.032837 
	C88.717484,337.297546 84.547249,340.562256 80.048714,343.962433 
	C79.140709,343.280823 78.561012,342.463745 77.932068,341.343994 
	C80.539360,338.568542 83.119095,336.005096 85.885864,333.662567 
	C87.204323,332.546295 88.878563,331.850281 90.989716,331.153351 
	C92.021103,332.239471 92.454414,333.136169 92.887718,334.032837 
z"/>
<path fill="#CA9F59" opacity="1.000000" stroke="none" 
	d="
M226.007599,424.964417 
	C222.700302,427.964996 219.389008,430.961182 216.087646,433.968292 
	C214.770706,435.167816 213.475861,436.391632 212.009888,437.924835 
	C211.137039,438.151215 210.425247,438.057159 209.369965,437.856689 
	C210.133347,436.109192 210.969208,434.163940 212.401398,432.888031 
	C215.771423,429.885590 219.426056,427.202637 223.351746,424.063171 
	C224.494522,424.145416 225.251053,424.554932 226.007599,424.964417 
z"/>
<path fill="#D3AE68" opacity="1.000000" stroke="none" 
	d="
M427.144897,194.022980 
	C431.814972,191.383209 436.485046,188.743423 441.497009,186.070099 
	C442.203125,187.132492 442.567322,188.228424 442.899231,189.672852 
	C438.167938,192.656219 433.468964,195.291092 428.298431,197.648041 
	C427.599548,196.254410 427.372223,195.138687 427.144897,194.022980 
z"/>
<path fill="#BD8F48" opacity="1.000000" stroke="none" 
	d="
M429.132416,202.018616 
	C432.226532,200.034851 435.275024,197.974136 438.434723,196.101044 
	C439.924133,195.218109 441.627014,194.695312 443.605225,194.007263 
	C444.299011,195.110153 444.620789,196.215118 444.903137,197.666809 
	C438.637878,197.952942 435.091766,202.716812 430.148376,205.651840 
	C429.463959,204.276031 429.298187,203.147324 429.132416,202.018616 
z"/>
<path fill="#D3AE68" opacity="1.000000" stroke="none" 
	d="
M352.655670,91.206512 
	C357.110016,87.924133 361.564362,84.641762 366.100708,80.991165 
	C366.695038,80.883095 367.207336,81.143257 367.886139,81.639809 
	C368.257355,86.799973 363.586243,87.526199 360.941528,89.924744 
	C359.523834,91.210503 357.465302,91.789680 355.096466,92.726295 
	C353.883209,92.245430 353.269440,91.725975 352.655670,91.206512 
z"/>
<path fill="#FFFFFF" opacity="1.000000" stroke="none" 
	d="
M352.389709,91.129395 
	C353.269440,91.725975 353.883209,92.245430 354.784332,92.867378 
	C357.189362,94.556190 359.307007,96.142502 361.736145,97.856438 
	C363.150360,98.917633 364.253082,99.851204 365.645386,100.904800 
	C371.709839,106.373108 377.484741,111.721375 383.573975,117.221786 
	C386.170868,120.051552 388.453461,122.729179 390.925171,125.684250 
	C392.548553,127.557968 393.982788,129.154251 395.706421,130.904388 
	C396.574280,132.175156 397.152802,133.292084 397.880188,134.697876 
	C402.498627,141.863800 406.968170,148.740875 411.709351,155.819580 
	C414.403870,161.229538 416.826721,166.437836 419.536346,171.820526 
	C420.458832,174.120010 421.094543,176.245071 421.902039,178.696625 
	C422.808319,181.201080 423.542816,183.379074 424.516418,185.784943 
	C424.923187,187.186951 425.090881,188.361099 425.509064,189.778046 
	C426.100433,191.150070 426.441345,192.279312 426.963562,193.715759 
	C427.372223,195.138687 427.599548,196.254410 427.954926,197.691467 
	C428.341125,199.133865 428.599274,200.254959 428.994934,201.697327 
	C429.298187,203.147324 429.463959,204.276031 429.808594,205.701996 
	C430.186554,207.465134 430.385590,208.931000 430.811768,210.695435 
	C431.574066,215.415710 432.109253,219.837433 432.798035,224.624664 
	C433.006683,234.682281 433.061737,244.374359 433.188232,254.529694 
	C433.071411,257.350372 432.883148,259.707794 432.549011,262.718689 
	C432.383636,263.923370 432.364075,264.474548 432.344513,265.025757 
	C432.252228,265.459106 432.159943,265.892426 432.105316,266.658295 
	C431.726685,269.713715 431.310394,272.436646 430.921661,275.575562 
	C430.334839,278.397034 429.720490,280.802460 429.129730,283.596527 
	C428.479462,286.403748 427.805603,288.822296 427.144592,291.618774 
	C424.683777,299.034119 422.210114,306.071594 419.670166,313.490997 
	C418.395142,316.342255 417.186371,318.811584 415.959747,321.638306 
	C414.414124,324.779083 412.886383,327.562469 411.296326,330.679321 
	C409.536804,333.781433 407.839569,336.550110 406.091827,339.661438 
	C395.513672,355.659332 383.587128,370.095703 368.994812,382.648254 
	C358.660736,389.771088 348.482300,396.590729 338.091370,403.679535 
	C329.011047,407.753357 320.143250,411.558044 311.031738,415.632446 
	C299.444641,418.585907 288.101227,421.269623 276.376892,424.076050 
	C272.132050,424.477722 268.268127,424.756683 263.776031,425.089661 
	C262.825012,425.124512 262.518890,425.187012 262.229431,425.331177 
	C261.401520,425.346008 260.573578,425.360840 259.349854,425.502991 
	C254.309158,425.644958 249.664276,425.659576 244.550873,425.720764 
	C241.662201,425.512299 239.242065,425.257202 236.415649,425.059998 
	C232.977829,425.089478 229.946259,425.061066 226.461151,424.998566 
	C225.251053,424.554932 224.494522,424.145416 223.391281,423.700836 
	C221.301880,423.365509 219.559189,423.065277 217.421143,422.739441 
	C214.614670,422.127258 212.203568,421.540710 209.397644,420.966736 
	C204.915390,419.701172 200.827942,418.423035 196.360107,417.146423 
	C194.213455,416.477203 192.447174,415.806458 190.325806,415.144318 
	C188.215988,414.442902 186.461212,413.732849 184.349045,413.029846 
	C182.552322,412.364990 181.113022,411.693115 179.329163,411.075226 
	C177.556610,410.390350 176.128601,409.651459 174.347366,408.997986 
	C172.880859,408.370758 171.767593,407.658142 170.322891,407.024963 
	C168.956512,406.382477 167.921570,405.660522 166.564728,404.923584 
	C164.076218,403.604889 161.909622,402.301178 159.391388,400.939270 
	C138.553055,388.069244 120.393372,372.660522 105.566727,353.054443 
	C103.921440,351.123047 102.558693,349.354279 101.021217,347.297180 
	C99.951019,345.526794 99.055542,344.044739 97.958466,342.293579 
	C97.105568,341.041229 96.454285,340.058014 95.515182,338.987091 
	C94.590263,337.455780 93.953178,336.012177 93.101906,334.300720 
	C92.454414,333.136169 92.021103,332.239471 91.364441,331.139282 
	C89.604210,327.786530 88.067322,324.637238 86.264801,321.278931 
	C85.400780,319.585114 84.802391,318.100342 84.017082,316.323242 
	C81.448097,309.442139 79.066040,302.853363 76.437439,295.994141 
	C75.748642,293.650696 75.306396,291.577698 74.670067,289.229370 
	C74.013535,286.890778 73.551086,284.827454 72.984093,282.373047 
	C72.598694,280.545288 72.317848,279.108673 71.910034,277.324951 
	C71.564308,275.215881 71.345543,273.453979 70.987823,271.338257 
	C70.551147,268.256683 70.253426,265.528839 69.848831,262.392578 
	C69.518860,258.600311 69.295761,255.216476 68.977417,251.413879 
	C69.315125,240.632523 69.748070,230.269882 70.141724,219.452133 
	C70.787201,215.294006 71.471962,211.591003 72.147263,207.459473 
	C72.811012,204.302124 73.484207,201.573318 74.176453,198.444122 
	C74.764359,196.272018 75.333206,194.500305 75.891251,192.369080 
	C76.589394,189.925507 77.298340,187.841431 78.028831,185.384613 
	C78.614326,183.286469 79.178284,181.561050 79.922394,179.532166 
	C82.386948,174.063446 84.671349,168.898178 87.006149,163.370850 
	C88.999825,159.570404 90.943115,156.132004 92.937462,152.345947 
	C96.883301,146.201370 100.778091,140.404449 104.770424,134.286316 
	C107.783791,130.501419 110.699615,127.037704 113.717468,123.262352 
	C115.808533,120.880104 117.797562,118.809486 119.905121,116.436111 
	C123.010040,113.343704 125.996429,110.554062 129.164093,107.474464 
	C130.554337,106.197784 131.763306,105.211067 133.144867,103.993340 
	C135.454330,102.112473 137.591232,100.462616 139.893890,98.525513 
	C142.616699,96.457565 145.173737,94.676872 147.915283,92.625961 
	C152.347824,89.794846 156.595856,87.233948 161.060776,84.402512 
	C176.366867,78.174461 191.122177,71.080353 206.623764,66.526680 
	C229.690414,59.750736 253.483719,59.371815 277.340240,62.707588 
	C295.435242,65.237740 312.621857,70.587746 329.544556,78.238754 
	C331.633606,79.218292 333.353638,80.130119 335.401337,81.090134 
	C337.234161,82.065865 338.739349,82.993408 340.575134,83.979156 
	C341.948120,84.717384 342.990509,85.397408 344.340271,86.135986 
	C346.177887,87.202019 347.708160,88.209503 349.561279,89.354301 
	C350.630676,90.011841 351.377228,90.532059 352.389709,91.129395 
M267.743774,168.697800 
	C262.303772,161.056381 256.863739,153.414963 251.123779,145.352219 
	C244.477173,154.676041 238.341675,163.282898 232.158905,171.956055 
	C221.994263,167.312149 212.380585,162.919952 202.373871,158.348206 
	C201.319458,169.542801 200.327286,180.076630 199.322708,190.742203 
	C188.344849,191.807861 177.796021,192.831879 166.722458,193.906830 
	C171.408875,204.127655 175.813675,213.734283 180.378860,223.690689 
	C171.479568,230.039719 162.779755,236.246429 153.661591,242.751617 
	C162.907578,249.272430 171.561890,255.375992 180.379227,261.594513 
	C175.760269,271.659790 171.313614,281.349640 166.689011,291.427216 
	C176.377136,292.327789 185.132782,293.551880 193.915497,293.793793 
	C198.665192,293.924622 199.809433,295.755066 200.057526,299.947174 
	C200.583923,308.841583 201.502029,317.712830 202.314499,327.238190 
	C211.295654,323.085754 219.768585,319.330109 228.078537,315.243103 
	C231.217545,313.699280 232.878601,314.024231 234.889694,317.084320 
	C239.976639,324.824707 245.519897,332.265228 251.154236,340.212189 
	C256.709442,332.347473 262.076202,325.156647 266.962341,317.652802 
	C269.257751,314.127655 271.116394,313.646912 274.914917,315.605347 
	C282.920441,319.732727 291.266022,323.200531 299.832428,327.103149 
	C300.963898,315.694366 302.022858,305.016968 303.075104,294.406952 
	C314.127563,293.387665 324.472961,292.433624 335.552612,291.411835 
	C330.797699,281.003784 326.360840,271.291870 321.910065,261.549591 
	C330.914062,255.205719 339.547455,249.122940 348.615753,242.733749 
	C339.328491,236.116089 330.682526,229.955368 321.869873,223.675888 
	C326.411194,213.812256 330.830292,204.214096 335.570312,193.918961 
	C324.405975,192.831024 313.879395,191.805237 303.025879,190.747604 
	C301.973816,180.003159 300.941254,169.457870 299.851837,158.331863 
	C290.704865,162.546661 281.947296,166.479691 273.296631,170.635162 
	C270.928833,171.772537 269.310303,171.827026 267.743774,168.697800 
z"/>
<path fill="#AE742F" opacity="1.000000" stroke="none" 
	d="
M262.181213,425.708923 
	C262.518890,425.187012 262.825012,425.124512 263.380432,425.186035 
	C263.464752,425.934570 263.316437,426.640717 263.168091,427.346893 
	C262.823059,426.926819 262.478027,426.506744 262.181213,425.708923 
z"/>
<path fill="#AE742F" opacity="1.000000" stroke="none" 
	d="
M432.664673,265.014465 
	C432.364075,264.474548 432.383636,263.923370 432.587769,263.160522 
	C433.370331,263.346863 433.968292,263.744843 434.566223,264.142792 
	C434.039093,264.429596 433.511963,264.716400 432.664673,265.014465 
z"/>
<path fill="#BA9341" opacity="1.000000" stroke="none" 
	d="
M267.921265,169.005615 
	C269.310303,171.827026 270.928833,171.772537 273.296631,170.635162 
	C281.947296,166.479691 290.704865,162.546661 299.851837,158.331863 
	C300.941254,169.457870 301.973816,180.003159 303.025879,190.747604 
	C313.879395,191.805237 324.405975,192.831024 335.570312,193.918961 
	C330.830292,204.214096 326.411194,213.812256 321.869873,223.675888 
	C330.682526,229.955368 339.328491,236.116089 348.615753,242.733749 
	C339.547455,249.122940 330.914062,255.205719 321.910065,261.549591 
	C326.360840,271.291870 330.797699,281.003784 335.552612,291.411835 
	C324.472961,292.433624 314.127563,293.387665 303.075104,294.406952 
	C302.022858,305.016968 300.963898,315.694366 299.832428,327.103149 
	C291.266022,323.200531 282.920441,319.732727 274.914917,315.605347 
	C271.116394,313.646912 269.257751,314.127655 266.962341,317.652802 
	C262.076202,325.156647 256.709442,332.347473 251.154236,340.212189 
	C245.519897,332.265228 239.976639,324.824707 234.889694,317.084320 
	C232.878601,314.024231 231.217545,313.699280 228.078537,315.243103 
	C219.768585,319.330109 211.295654,323.085754 202.314499,327.238190 
	C201.502029,317.712830 200.583923,308.841583 200.057526,299.947174 
	C199.809433,295.755066 198.665192,293.924622 193.915497,293.793793 
	C185.132782,293.551880 176.377136,292.327789 166.689011,291.427216 
	C171.313614,281.349640 175.760269,271.659790 180.379227,261.594513 
	C171.561890,255.375992 162.907578,249.272430 153.661591,242.751617 
	C162.779755,236.246429 171.479568,230.039719 180.378860,223.690689 
	C175.813675,213.734283 171.408875,204.127655 166.722458,193.906830 
	C177.796021,192.831879 188.344849,191.807861 199.322708,190.742203 
	C200.327286,180.076630 201.319458,169.542801 202.373871,158.348206 
	C212.380585,162.919952 221.994263,167.312149 232.158905,171.956055 
	C238.341675,163.282898 244.477173,154.676041 251.123779,145.352219 
	C256.863739,153.414963 262.303772,161.056381 267.921265,169.005615 
M306.231354,195.784622 
	C303.862946,195.494751 301.494537,195.204865 299.036255,194.065338 
	C298.064270,184.472656 297.092316,174.879974 296.036774,164.462784 
	C292.660767,166.242203 290.215149,167.531235 287.087189,168.979980 
	C284.355865,170.291534 281.624542,171.603088 278.181915,173.001099 
	C275.120209,174.382263 272.058533,175.763443 268.406036,176.798294 
	C265.678864,173.158936 262.951721,169.519592 260.016357,165.219055 
	C257.181244,161.208954 254.346100,157.198868 251.127716,152.646683 
	C249.432419,155.134781 248.144073,157.025589 246.285080,159.269684 
	C243.151184,163.827408 240.017273,168.385132 236.327087,173.319641 
	C235.399002,174.566879 234.470901,175.814133 233.584808,177.004929 
	C231.876297,176.428543 230.526108,175.973053 228.631607,175.119995 
	C225.440750,173.697525 222.249878,172.275055 218.592148,170.337433 
	C214.595673,168.527176 210.599197,166.716919 206.048080,164.655426 
	C205.700714,169.210159 205.403259,173.110397 204.934357,177.834793 
	C204.224915,183.470047 203.515488,189.105316 202.832169,194.533005 
	C199.840530,195.046097 197.423492,195.460663 194.086777,195.815216 
	C187.220627,196.332169 180.354492,196.849121 172.907440,197.409790 
	C176.199203,204.573334 179.142349,211.044907 182.142624,217.489868 
	C185.591568,224.898621 185.613541,224.888397 179.079971,230.012543 
	C173.140320,234.126144 167.200668,238.239761 160.640335,242.783218 
	C167.770279,247.633041 174.321976,252.089539 181.318680,257.036835 
	C185.262177,258.998718 185.460953,261.499908 183.439590,265.367920 
	C179.673920,272.573730 176.535721,280.107452 173.007355,287.785400 
	C180.843170,288.433350 187.908875,289.017609 195.837189,289.835815 
	C198.117996,290.030029 200.398788,290.224274 202.900681,290.437317 
	C203.685242,297.192871 204.427994,303.588409 205.070297,310.815979 
	C205.460770,313.864685 205.851242,316.913391 206.338623,320.718750 
	C210.964981,318.529266 214.973969,316.631958 219.654144,314.606049 
	C223.183121,312.888916 226.712097,311.171753 230.950882,309.238129 
	C233.234222,310.643768 235.517578,312.049408 237.962311,314.099823 
	C241.267899,318.573853 244.573502,323.047913 247.970230,328.182281 
	C248.939041,329.551208 249.907852,330.920135 251.347931,332.954956 
	C254.716309,327.863495 257.575287,323.542053 260.919403,318.796509 
	C263.921173,315.316986 266.922974,311.837463 270.399872,308.809570 
	C273.600098,310.214508 276.800354,311.619446 280.578735,313.408173 
	C283.372437,314.645142 286.166138,315.882111 289.418671,317.646729 
	C291.351349,318.453430 293.284058,319.260132 296.013611,320.399445 
	C297.128296,309.889252 298.174683,300.022888 300.032837,290.110840 
	C302.380737,289.827332 304.728607,289.543854 307.973969,289.226196 
	C310.976868,289.087006 313.979736,288.947784 317.824554,288.896515 
	C321.389130,288.470978 324.953735,288.045441 329.229309,287.535034 
	C325.355194,279.433624 321.670288,271.727905 317.785980,263.348572 
	C318.202789,261.593323 318.619568,259.838043 319.667572,257.812073 
	C326.751526,252.874741 333.835480,247.937424 341.358643,242.693970 
	C333.335419,237.113602 326.161133,232.123688 318.411346,226.719849 
	C315.008118,223.856232 319.305878,221.617905 319.576447,218.571884 
	C322.726990,211.654358 325.877533,204.736847 329.453217,196.885849 
	C324.527710,196.885849 320.772003,196.885849 316.269958,196.568817 
	C313.181702,196.355499 310.093475,196.142197 306.231354,195.784622 
z"/>
<path fill="#27AB96" opacity="1.000000" stroke="none" 
	d="
M218.982971,314.734619 
	C214.973969,316.631958 210.964981,318.529266 206.338623,320.718750 
	C205.851242,316.913391 205.460770,313.864685 205.501816,310.296814 
	C206.288712,308.583252 206.953217,307.389313 206.954742,306.194489 
	C207.008392,264.448547 207.016937,222.702530 206.920135,180.956772 
	C206.917084,179.639999 205.737122,178.325958 205.105804,177.010635 
	C205.403259,173.110397 205.700714,169.210159 206.048080,164.655426 
	C210.599197,166.716919 214.595673,168.527176 218.806396,171.075668 
	C219.008102,219.454147 218.995529,267.094391 218.982971,314.734619 
z"/>
<path fill="#41B983" opacity="1.000000" stroke="none" 
	d="
M246.855728,158.916412 
	C248.144073,157.025589 249.432419,155.134781 251.127716,152.646683 
	C254.346100,157.198868 257.181244,161.208954 259.783081,165.830521 
	C259.366638,167.571640 259.023865,168.701187 259.023224,169.830948 
	C258.996521,218.141052 258.987457,266.451202 259.060455,314.761200 
	C259.062714,316.248352 259.956238,317.734161 260.434265,319.220581 
	C257.575287,323.542053 254.716309,327.863495 251.347931,332.954956 
	C249.907852,330.920135 248.939041,329.551208 247.959381,327.381897 
	C248.298904,324.296295 248.952499,322.011414 248.955093,319.725800 
	C249.013260,268.593719 249.029633,217.461441 248.908737,166.329559 
	C248.902893,163.856903 247.570435,161.387390 246.855728,158.916412 
z"/>
<path fill="#3AB588" opacity="1.000000" stroke="none" 
	d="
M246.570404,159.093048 
	C247.570435,161.387390 248.902893,163.856903 248.908737,166.329559 
	C249.029633,217.461441 249.013260,268.593719 248.955093,319.725800 
	C248.952499,322.011414 248.298904,324.296295 247.913818,327.051727 
	C244.573502,323.047913 241.267899,318.573853 238.059082,313.348999 
	C238.437180,310.985931 238.962570,309.373932 238.964233,307.761444 
	C239.008987,264.522461 239.024002,221.283386 238.910553,178.044662 
	C238.906097,176.342316 237.588882,174.643387 236.883362,172.942856 
	C240.017273,168.385132 243.151184,163.827408 246.570404,159.093048 
z"/>
<path fill="#48BC7E" opacity="1.000000" stroke="none" 
	d="
M260.676819,319.008545 
	C259.956238,317.734161 259.062714,316.248352 259.060455,314.761200 
	C258.987457,266.451202 258.996521,218.141052 259.023224,169.830948 
	C259.023865,168.701187 259.366638,167.571640 259.887177,166.161102 
	C262.951721,169.519592 265.678864,173.158936 268.763275,177.372787 
	C269.413544,179.562073 269.961578,181.176743 269.962433,182.791687 
	C269.984528,224.647095 269.949707,266.502502 269.924744,308.357941 
	C266.922974,311.837463 263.921173,315.316986 260.676819,319.008545 
z"/>
<path fill="#2EAF91" opacity="1.000000" stroke="none" 
	d="
M219.318542,314.670349 
	C218.995529,267.094391 219.008102,219.454147 219.039841,171.333252 
	C222.249878,172.275055 225.440750,173.697525 228.851105,175.829971 
	C229.047241,219.096100 229.009125,261.652283 229.053101,304.208344 
	C229.054916,305.957520 229.827560,307.705872 230.241074,309.454620 
	C226.712097,311.171753 223.183121,312.888916 219.318542,314.670349 
z"/>
<path fill="#17A2A2" opacity="1.000000" stroke="none" 
	d="
M179.726685,229.815659 
	C185.613541,224.888397 185.591568,224.898621 182.142624,217.489868 
	C179.142349,211.044907 176.199203,204.573334 172.907440,197.409790 
	C180.354492,196.849121 187.220627,196.332169 194.544434,196.324997 
	C194.992920,227.757141 194.983734,258.679504 194.974564,289.601868 
	C187.908875,289.017609 180.843170,288.433350 173.007355,287.785400 
	C176.535721,280.107452 179.673920,272.573730 183.439590,265.367920 
	C185.460953,261.499908 185.262177,258.998718 181.129669,256.277588 
	C180.960587,248.448792 181.053391,241.378113 180.941986,234.310654 
	C180.918274,232.806305 180.151245,231.313690 179.726685,229.815659 
z"/>
<path fill="#4FC079" opacity="1.000000" stroke="none" 
	d="
M270.162292,308.583740 
	C269.949707,266.502502 269.984528,224.647095 269.962433,182.791687 
	C269.961578,181.176743 269.413544,179.562073 269.058655,177.545959 
	C272.058533,175.763443 275.120209,174.382263 278.851929,173.251984 
	C279.681305,175.468414 279.978577,177.433884 279.979767,179.399536 
	C280.006287,223.941147 280.000366,268.482758 280.000580,313.024384 
	C276.800354,311.619446 273.600098,310.214508 270.162292,308.583740 
z"/>
<path fill="#5BC670" opacity="1.000000" stroke="none" 
	d="
M287.769531,168.820282 
	C290.215149,167.531235 292.660767,166.242203 296.036774,164.462784 
	C297.092316,174.879974 298.064270,184.472656 298.762207,194.780609 
	C298.326660,196.296341 298.024750,197.096695 298.024048,197.897324 
	C297.998749,227.293472 297.985138,256.689667 298.051971,286.085663 
	C298.055054,287.443512 298.814117,288.799622 299.221069,290.156555 
	C298.174683,300.022888 297.128296,309.889252 296.013611,320.399445 
	C293.284058,319.260132 291.351349,318.453430 289.203003,316.903076 
	C288.991577,268.905243 289.009796,221.651093 288.948029,174.397034 
	C288.945587,172.537613 288.179688,170.679184 287.769531,168.820282 
z"/>
<path fill="#34B28C" opacity="1.000000" stroke="none" 
	d="
M230.595978,309.346375 
	C229.827560,307.705872 229.054916,305.957520 229.053101,304.208344 
	C229.009125,261.652283 229.047241,219.096100 229.123260,176.028748 
	C230.526108,175.973053 231.876297,176.428543 233.584808,177.004929 
	C234.470901,175.814133 235.399002,174.566879 236.605225,173.131256 
	C237.588882,174.643387 238.906097,176.342316 238.910553,178.044662 
	C239.024002,221.283386 239.008987,264.522461 238.964233,307.761444 
	C238.962570,309.373932 238.437180,310.985931 237.978394,313.026611 
	C235.517578,312.049408 233.234222,310.643768 230.595978,309.346375 
z"/>
<path fill="#55C375" opacity="1.000000" stroke="none" 
	d="
M287.428345,168.900131 
	C288.179688,170.679184 288.945587,172.537613 288.948029,174.397034 
	C289.009796,221.651093 288.991577,268.905243 288.973602,316.639221 
	C286.166138,315.882111 283.372437,314.645142 280.289673,313.216278 
	C280.000366,268.482758 280.006287,223.941147 279.979767,179.399536 
	C279.978577,177.433884 279.681305,175.468414 279.207581,173.208740 
	C281.624542,171.603088 284.355865,170.291534 287.428345,168.900131 
z"/>
<path fill="#1EA79C" opacity="1.000000" stroke="none" 
	d="
M195.405884,289.718842 
	C194.983734,258.679504 194.992920,227.757141 195.004272,196.354996 
	C197.423492,195.460663 199.840530,195.046097 202.832169,194.533005 
	C203.515488,189.105316 204.224915,183.470047 205.020081,177.422714 
	C205.737122,178.325958 206.917084,179.639999 206.920135,180.956772 
	C207.016937,222.702530 207.008392,264.448547 206.954742,306.194489 
	C206.953217,307.389313 206.288712,308.583252 205.552032,309.880798 
	C204.427994,303.588409 203.685242,297.192871 202.900681,290.437317 
	C200.398788,290.224274 198.117996,290.030029 195.405884,289.718842 
z"/>
<path fill="#66CC68" opacity="1.000000" stroke="none" 
	d="
M319.036377,258.082794 
	C318.619568,259.838043 318.202789,261.593323 317.720551,264.066833 
	C317.430939,272.792908 317.206787,280.800751 316.982635,288.808594 
	C313.979736,288.947784 310.976868,289.087006 307.500488,288.748657 
	C307.019714,257.490387 307.012451,226.709641 307.005219,195.928894 
	C310.093475,196.142197 313.181702,196.355499 316.637695,197.208130 
	C317.004272,203.632675 316.882751,209.422318 317.094635,215.199753 
	C317.142029,216.491455 318.358948,217.740265 319.037445,219.008820 
	C319.305878,221.617905 315.008118,223.856232 318.703186,227.382019 
	C319.008789,238.057068 319.022583,248.069931 319.036377,258.082794 
z"/>
<path fill="#60C96D" opacity="1.000000" stroke="none" 
	d="
M306.618286,195.856750 
	C307.012451,226.709641 307.019714,257.490387 307.051758,288.765747 
	C304.728607,289.543854 302.380737,289.827332 299.626953,290.133698 
	C298.814117,288.799622 298.055054,287.443512 298.051971,286.085663 
	C297.985138,256.689667 297.998749,227.293472 298.024048,197.897324 
	C298.024750,197.096695 298.326660,196.296341 298.807129,195.205429 
	C301.494537,195.204865 303.862946,195.494751 306.618286,195.856750 
z"/>
<path fill="#70D061" opacity="1.000000" stroke="none" 
	d="
M319.351990,257.947449 
	C319.022583,248.069931 319.008789,238.057068 318.990906,227.588989 
	C326.161133,232.123688 333.335419,237.113602 341.358643,242.693970 
	C333.835480,247.937424 326.751526,252.874741 319.351990,257.947449 
z"/>
<path fill="#0F9DA8" opacity="1.000000" stroke="none" 
	d="
M179.403320,229.914093 
	C180.151245,231.313690 180.918274,232.806305 180.941986,234.310654 
	C181.053391,241.378113 180.960587,248.448792 180.907166,256.032166 
	C174.321976,252.089539 167.770279,247.633041 160.640335,242.783218 
	C167.200668,238.239761 173.140320,234.126144 179.403320,229.914093 
z"/>
<path fill="#70D061" opacity="1.000000" stroke="none" 
	d="
M317.403595,288.852539 
	C317.206787,280.800751 317.430939,272.792908 317.820251,264.403625 
	C321.670288,271.727905 325.355194,279.433624 329.229309,287.535034 
	C324.953735,288.045441 321.389130,288.470978 317.403595,288.852539 
z"/>
<path fill="#70D061" opacity="1.000000" stroke="none" 
	d="
M319.306946,218.790344 
	C318.358948,217.740265 317.142029,216.491455 317.094635,215.199753 
	C316.882751,209.422318 317.004272,203.632675 317.010864,197.366638 
	C320.772003,196.885849 324.527710,196.885849 329.453217,196.885849 
	C325.877533,204.736847 322.726990,211.654358 319.306946,218.790344 
z"/>
</svg>